<mxfile host="app.diagrams.net" agent="Mozilla/5.0 (Windows NT 10.0; Win64; x64) AppleWebKit/537.36 (KHTML, like Gecko) Chrome/127.0.0.0 Safari/537.36 OPR/113.0.0.0" version="24.7.17">
  <diagram name="PÃ¡gina-1" id="iv7xF7jC-3hlmezNWdpo">
    <mxGraphModel dx="1079" dy="1620" grid="1" gridSize="10" guides="1" tooltips="1" connect="1" arrows="1" fold="1" page="1" pageScale="1" pageWidth="827" pageHeight="1169" math="0" shadow="0">
      <root>
        <mxCell id="0" />
        <mxCell id="1" parent="0" />
        <mxCell id="TzYh7e0ncgZN5UkXU_US-1" value="&lt;span style=&quot;font-size: 24px;&quot;&gt;xxxxxx POR ARTUR VALENTE&lt;/span&gt;" style="rounded=0;whiteSpace=wrap;html=1;" parent="1" vertex="1">
          <mxGeometry x="360" y="-140" width="530" height="60" as="geometry" />
        </mxCell>
        <mxCell id="TzYh7e0ncgZN5UkXU_US-2" value="&lt;div style=&quot;&quot;&gt;&lt;span style=&quot;font-size: 24px;&quot;&gt;TAREFAS xxxxx&lt;/span&gt;&lt;/div&gt;&lt;div style=&quot;&quot;&gt;&lt;ul&gt;&lt;li&gt;&lt;br&gt;&lt;/li&gt;&lt;/ul&gt;&lt;/div&gt;" style="rounded=0;whiteSpace=wrap;html=1;" parent="1" vertex="1">
          <mxGeometry x="471" y="-18" width="530" height="220" as="geometry" />
        </mxCell>
        <mxCell id="TzYh7e0ncgZN5UkXU_US-3" value="&lt;span style=&quot;font-size: 24px;&quot;&gt;LOGICA&lt;/span&gt;" style="rounded=0;whiteSpace=wrap;html=1;rotation=90;" parent="1" vertex="1">
          <mxGeometry x="270" y="70" width="220" height="60" as="geometry" />
        </mxCell>
        <mxCell id="TzYh7e0ncgZN5UkXU_US-4" value="" style="endArrow=classic;html=1;rounded=0;" parent="1" edge="1">
          <mxGeometry width="50" height="50" relative="1" as="geometry">
            <mxPoint x="430" y="-10" as="sourcePoint" />
            <mxPoint x="430" y="210" as="targetPoint" />
          </mxGeometry>
        </mxCell>
        <mxCell id="TzYh7e0ncgZN5UkXU_US-5" value="&lt;div style=&quot;&quot;&gt;&lt;span style=&quot;font-size: 24px;&quot;&gt;TAREFAS xxxx&lt;/span&gt;&lt;/div&gt;&lt;div style=&quot;&quot;&gt;&lt;ul&gt;&lt;li&gt;&lt;br&gt;&lt;/li&gt;&lt;/ul&gt;&lt;/div&gt;" style="rounded=0;whiteSpace=wrap;html=1;" parent="1" vertex="1">
          <mxGeometry x="480" y="220" width="530" height="220" as="geometry" />
        </mxCell>
        <mxCell id="TzYh7e0ncgZN5UkXU_US-6" value="&lt;span style=&quot;font-size: 24px;&quot;&gt;LOGICA&lt;/span&gt;" style="rounded=0;whiteSpace=wrap;html=1;rotation=90;" parent="1" vertex="1">
          <mxGeometry x="270" y="310" width="220" height="60" as="geometry" />
        </mxCell>
        <mxCell id="TzYh7e0ncgZN5UkXU_US-7" value="" style="endArrow=classic;html=1;rounded=0;" parent="1" edge="1">
          <mxGeometry width="50" height="50" relative="1" as="geometry">
            <mxPoint x="430" y="230" as="sourcePoint" />
            <mxPoint x="430" y="450" as="targetPoint" />
          </mxGeometry>
        </mxCell>
        <mxCell id="TzYh7e0ncgZN5UkXU_US-8" value="&lt;div style=&quot;&quot;&gt;&lt;span style=&quot;font-size: 24px;&quot;&gt;TAREFAS xxxxx&lt;/span&gt;&lt;/div&gt;&lt;div style=&quot;&quot;&gt;&lt;ul&gt;&lt;li&gt;&lt;br&gt;&lt;/li&gt;&lt;/ul&gt;&lt;/div&gt;" style="rounded=0;whiteSpace=wrap;html=1;" parent="1" vertex="1">
          <mxGeometry x="480" y="460" width="530" height="220" as="geometry" />
        </mxCell>
        <mxCell id="TzYh7e0ncgZN5UkXU_US-9" value="&lt;span style=&quot;font-size: 24px;&quot;&gt;LOGICA&lt;/span&gt;" style="rounded=0;whiteSpace=wrap;html=1;rotation=90;" parent="1" vertex="1">
          <mxGeometry x="270" y="550" width="220" height="60" as="geometry" />
        </mxCell>
        <mxCell id="TzYh7e0ncgZN5UkXU_US-10" value="" style="endArrow=classic;html=1;rounded=0;" parent="1" edge="1">
          <mxGeometry width="50" height="50" relative="1" as="geometry">
            <mxPoint x="430" y="470" as="sourcePoint" />
            <mxPoint x="430" y="690" as="targetPoint" />
          </mxGeometry>
        </mxCell>
      </root>
    </mxGraphModel>
  </diagram>
</mxfile>
